# xmcd
#
# Track frame offsets:
#	150
#	15067
#	30992
#	45442
#	66235
#	80892
#	98590
#	110757
#	129512
#	142707
#	159210
#	173520
#	191427
#	202782
#	220080
#
# Disc length: 3238 seconds
#
# Revision: 0
# Processed by: cddbd v1.5.2PL0 Copyright (c) Steve Scherf et al.
# Submitted via: EasyCDDAExtractor 16.0.6.1
#
DISCID=ad0ca40f
DTITLE=Λεμπέσης Γιάννης - Σού 'γραψα ένα τραγούδι-Γ. Λεμπέσης
DYEAR=1999
DGENRE=Λαϊκή
TTITLE0=Η σπίθα γίνεται φωτιά [ζεϊμπέκικο, μουσ-στ Γ. Λεμπέση]
TTITLE1=Σού 'γραψα ένα τραγούδι [ζεϊμπέκικο, μουσ-στ Γ. Λεμπέση]
TTITLE2=Ορειβάτης [τσιφτετέλι, μουσ-στ Γ. Λεμπέση]
TTITLE3=Ήρθε ένας φίλος μου παλιός [ζεϊμπέκικο, μουσ-στ Γ. Λεμπέση]
TTITLE4=Άνθρωποι και ανθρωπάκια [καμηλιέρικο, μουσ-στ Γ. Λεμπέση]
TTITLE5=Σάς μιλάω σοβαρά [συρτός, μουσ-στ Γ. Λεμπέση]
TTITLE6=Μοναδικό σωσίβιο έχω την αγκαλιά σου [ζεϊμπέκικο, μουσ-στ Γ. Λεμπέση]
TTITLE7=Είναι στιγμές που χάνομαι [συρτός, μουσ-στ Γ. Λεμπέση]
TTITLE8=Παντοτινά θα σ' αγαπώ [χαμπανέρα, μουσ-στ Γ. Λεμπέση]
TTITLE9=Τυχοδιώκτης [ζεϊμπέκικο, μουσ-στ Γ. Λεμπέση]
TTITLE10=Λίγο δίκιο [τσιφτετέλι, μουσ-στ Γ. Λεμπέση]
TTITLE11=Σφραγίδα πόνου [ζεϊμπέκικο, μουσ-στ Γ. Λεμπέση]
TTITLE12=Ένα κουκλί μέσ' στη Βουλή [συρτός, μουσ-στ Γ. Λεμπέση]
TTITLE13=Γλέντα φίλε την ζωή σου [καμηλιέρικο, μουσ-στ Γ. Λεμπέση]
TTITLE14=Σε θέλω και μελαγχολώ [ανατολίτικο, μουσ-στ Γ. Λεμπέση]
EXTD=
EXTT0=
EXTT1=
EXTT2=
EXTT3=
EXTT4=
EXTT5=
EXTT6=
EXTT7=
EXTT8=
EXTT9=
EXTT10=
EXTT11=
EXTT12=
EXTT13=
EXTT14=
PLAYORDER=
